<?xml version="1.0" encoding="UTF-8"?>
<svg id="Foreground" xmlns="http://www.w3.org/2000/svg" viewBox="0 0 1920 1080">
<path d="M1793.19,129.48c8.7,8.7,14.08,20.71,14.08,33.98v196.89s0,195.83,0,195.83c0,13.27-5.38,25.29-14.08,33.98l-.02-.03-129.47,129.51h-.06l-183.27,183.27c-11.32,12.58-18.22,29.29-18.22,47.52v129.56s-22.72,0-22.72,0v-196.88c0-13.27,5.38-25.29,14.08-33.99l.02.02,129.47-129.5h.06l183.27-183.28c11.32-12.57,18.22-29.28,18.22-47.52l-.02-128.51v-1.05l.02-128.51c0-18.23-6.9-34.95-18.22-47.52L1583.05,0h80.59s.06,0,.06,0l129.47,129.5.02-.02Z"/>
<path d="M1906.9,702.14l-.02-.03-17.52,17.54-295.29,295.29c-11.32,12.57-18.23,29.29-18.23,47.52l.02,17.54h-22.74s0-84.86,0-84.86c0-13.27,5.39-25.29,14.09-33.99l.02.02,241.48-241.52h.02l71.31-71.31c11.32-12.57,18.22-29.28,18.22-47.51l-.02-241.53.02-240.48c0-18.23-6.9-34.94-18.22-47.52L1808.73,0h80.64s17.52,17.54,17.52,17.54l.02-.03c8.7,8.7,14.08,20.72,14.08,33.99v307.8s0,1.05,0,1.05v307.8c0,13.27-5.38,25.29-14.08,33.99Z"/>
<path d="M1850.05,73.5c8.7,8.7,14.08,20.71,14.08,33.99v251.82s0,1.05,0,1.05v251.82c0,13.27-5.38,25.29-14.08,33.99l-.02-.03-73.49,73.52h-.28c-.68.78-1.36,1.57-2.09,2.3l-236.95,236.95c-11.32,12.57-18.22,29.29-18.22,47.52v73.58s-22.72,0-22.72,0v-140.9c0-13.27,5.38-25.29,14.08-33.99l.02.02,185.44-185.48h.08l127.29-127.29c11.32-12.57,18.22-29.29,18.22-47.52l-.02-185.54.02-184.49c0-18.23-6.9-34.95-18.22-47.52L1695.89,0h80.37s.28,0,.28,0l73.49,73.52.02-.02Z"/>
<path d="M1736.34,185.47c8.7,8.7,14.08,20.71,14.08,33.99v139.85s0,1.05,0,1.05v139.85c0,13.27-5.38,25.29-14.08,33.99l-.02-.02-185.45,185.49h-.07s-127.29,127.28-127.29,127.28c-11.32,12.57-18.22,29.29-18.22,47.52v185.54s-22.72,0-22.72,0v-252.87c0-13.28,5.38-25.29,14.08-33.99l.02.02,73.49-73.52h.27c.7-.78,1.37-1.57,2.1-2.31l236.95-236.95c11.32-12.57,18.22-29.29,18.22-47.52v-73.58s0-72.52,0-72.52c0-18.24-6.9-34.95-18.22-47.52L1472.52,2.3c-.73-.73-1.41-1.53-2.1-2.3h80.38s.07,0,.07,0l185.45,185.49.02-.02Z"/>
<path d="M1679.48,241.5c8.7,8.7,14.08,20.71,14.08,33.99v83.81s0,1.05,0,1.05v83.81c0,13.27-5.38,25.29-14.08,33.99l-.02-.02-241.49,241.52h0l-71.31,71.3c-11.32,12.57-18.22,29.29-18.22,47.52l.02,241.52H0S0,0,0,0h1437.96s0,0,0,0l241.49,241.52.02-.02Z"/>
</svg>