<?xml version="1.0" encoding="UTF-8"?>
<svg id="Foreground" xmlns="http://www.w3.org/2000/svg" viewBox="0 0 1920 1080">
<path d="M496.18,127.02v71.3s0,0,0,0v108.36c0,7.3-2.96,13.92-7.75,18.7h-.01S0,813.81,0,813.81v-44.38s473.65-473.65,473.65-473.65c6.23-6.92,10.03-16.12,10.03-26.15v-71.3s0,0,0,0v-108.36c0-7.3,2.96-13.92,7.75-18.7h.01S562.69,0,562.69,0h44.39s-100.87,100.87-100.87,100.87c-6.23,6.92-10.03,16.12-10.03,26.15Z"/>
<path d="M433.6,65.4v132.93s0,0,0,0v46.71c0,7.31-2.96,13.92-7.75,18.7h-.01S0,689.59,0,689.59v-44.39S411.07,234.14,411.07,234.14c6.23-6.92,10.03-16.12,10.03-26.15v-9.65s0-169.98,0-169.98c0-7.31,2.96-13.92,7.75-18.71h.01S438.49,0,438.49,0h44.38s-39.25,39.25-39.25,39.25c-6.23,6.92-10.03,16.12-10.03,26.15Z"/>
<path d="M464.89,96.21v102.12s0,0,0,0v77.55c0,7.31-2.96,13.92-7.75,18.7h-.01S0,751.71,0,751.71v-44.38s442.36-442.36,442.36-442.36c6.23-6.92,10.03-16.12,10.03-26.15v-40.49s0,0,0,0V59.15c0-7.31,2.96-13.92,7.75-18.7h.01S500.59,0,500.59,0h44.39s-70.06,70.06-70.06,70.06c-6.23,6.92-10.03,16.12-10.03,26.15Z"/>
<path d="M537.5,131.68c-6.23,6.92-10.03,16.12-10.03,26.15v40.49s0,0,0,0v139.17c0,7.31-2.96,13.92-7.75,18.7h-.01S0,875.92,0,875.92v-44.38s504.94-504.94,504.94-504.94c6.23-6.92,10.03-16.12,10.03-26.15v-102.12s0,0,0,0v-77.55c0-7.31,2.96-13.92,7.75-18.7h.01S624.79,0,624.79,0h44.27c-.38.43-.75.86-1.15,1.27l-130.41,130.41Z"/>
<path d="M0,1080v-186.36S536.23,357.41,536.23,357.41c6.23-6.92,10.03-16.12,10.03-26.15v-132.93s0,0,0,0v-46.71c0-7.31,2.96-13.92,7.75-18.7h.01S686.92,0,686.92,0h1233.08v1080H0Z"/>
</svg>