<?xml version="1.0" encoding="UTF-8"?>
<svg id="Foreground" xmlns="http://www.w3.org/2000/svg" viewBox="0 0 1920 1080">
<path d="M335.97,811.77c.55-.55,1.06-1.14,1.57-1.72h.2l55.05-55.08.02.02c6.52-6.52,10.55-15.52,10.55-25.46v-378.09c0-9.94-4.03-18.95-10.54-25.46l-.02.02-55.05-55.08h-.2c-.51-.58-1.02-1.17-1.57-1.72L158.45,91.67c-8.48-9.42-13.65-21.94-13.65-35.6V.95s0,0,0,0h-17.03v105.56c0,9.94,4.03,18.95,10.55,25.46l.02-.02,138.93,138.96h.05l95.36,95.36c8.48,9.42,13.65,21.94,13.65,35.6v138.21h-.01v139c.01,13.66-5.16,26.18-13.64,35.6l-95.36,95.36h-.05l-138.93,138.96-.02-.02c-6.52,6.52-10.55,15.52-10.55,25.46v105.56h17.03v-55.12c0-13.66,5.16-26.18,13.64-35.6l177.51-177.52Z"/>
<path d="M168.63,810.04h.05l138.93-138.96.02.02c6.52-6.52,10.55-15.52,10.55-25.46v-210.32c0-9.95-4.03-18.95-10.55-25.46l-.02.02-138.93-138.96h-.05l-95.36-95.36c-8.48-9.42-13.65-21.94-13.65-35.6V.95s0,0,0,0h-17.03v189.44c0,9.94,4.03,18.95,10.55,25.46l.02-.02,55.05,55.08h.2c.51.58,1.02,1.18,1.57,1.73l177.51,177.51c8.48,9.42,13.65,21.94,13.65,35.6v54.33h-.01v55.12c.01,13.66-5.16,26.18-13.64,35.6l-177.52,177.51c-.55.55-1.05,1.14-1.57,1.73h-.2l-55.05,55.08-.02-.02c-6.52,6.52-10.55,15.51-10.55,25.46v189.44h17.03v-139c-.01-13.66,5.16-26.18,13.64-35.6l95.36-95.36Z"/>
<path d="M84.09,810.04h.01l180.91-180.94.02.02c6.52-6.52,10.55-15.52,10.55-25.46v-126.37c0-9.95-4.03-18.95-10.55-25.46l-.02.02-180.91-180.94h-.01l-53.42-53.42c-8.48-9.42-13.65-21.94-13.65-35.6V.95s0,0,0,0H0v231.38c0,9.94,4.03,18.95,10.55,25.46l.02-.02,13.12,13.14,221.22,221.22c8.48,9.42,13.65,21.94,13.65,35.6v12.35h-.01v13.14c.01,13.66-5.16,26.18-13.64,35.6L23.69,810.04l-13.12,13.14-.02-.02c-6.52,6.52-10.55,15.52-10.55,25.46v231.38h17.04v-180.94c-.01-13.66,5.16-26.18,13.64-35.6l53.42-53.42Z"/>
<path d="M253.16,810.04h.05l96.99-97.02.02.02c6.52-6.52,10.55-15.52,10.55-25.46v-146.71h0v-147.5c0-9.94-4.03-18.94-10.55-25.46l-.02.02-96.99-97.02h-.05L115.86,133.61c-8.48-9.42-13.65-21.94-13.65-35.6V.95s0,0,0,0h-17.03v147.5c0,9.94,4.03,18.95,10.55,25.46l.02-.02,96.99,97.02h.05l137.3,137.3c8.48,9.42,13.65,21.94,13.65,35.6v96.27h-.01v.79h0v96.27c.01,13.66-5.16,26.18-13.64,35.6l-137.3,137.3h-.05l-96.99,97.02-.02-.02c-6.52,6.52-10.55,15.52-10.55,25.46v147.5h17.03v-97.06c-.01-13.66,5.16-26.18,13.64-35.6l137.3-137.3Z"/>
<path d="M1920,.95H170.37v63.58c0,9.94,4.03,18.95,10.55,25.46l.02-.02,180.91,180.94h.01l53.42,53.42c8.48,9.42,13.65,21.94,13.65,35.6v180.15s0,180.94,0,180.94c0,13.66-5.17,26.18-13.65,35.6l-53.42,53.42h-.01l-180.91,180.94-.02-.02c-6.52,6.52-10.55,15.52-10.55,25.46v63.58h1749.63V.95Z"/>
</svg>