<?xml version="1.0" encoding="UTF-8"?>
<svg id="Foreground" xmlns="http://www.w3.org/2000/svg" viewBox="0 0 1920 1080">
<path d="M1305.2,818.63l.03.03,277.66-277.71h.1l190.58-190.58c16.95-18.82,27.29-43.85,27.29-71.15l-.02-277.8h34.04v378.6c0,19.87-8.05,37.86-21.08,50.88l-.03-.04-110.03,110.07h-.41c-1.03,1.17-2.04,2.35-3.14,3.45l-354.77,354.77c-16.95,18.82-27.29,43.85-27.29,71.15l.02,110.16h-34.04v-210.96c0-19.87,8.06-37.86,21.08-50.88Z"/>
<path d="M1390.32,902.53l.03.03,361.56-361.61h.02l106.76-106.76c16.95-18.83,27.29-43.85,27.29-71.14l-.03-361.62h34.05v462.42c0,19.87-8.05,37.86-21.08,50.89l-.04-.04-26.22,26.26-442.12,442.12c-16.95,18.82-27.29,43.85-27.29,71.15l.02,26.26h-34.04v-127.06c0-19.87,8.06-37.86,21.08-50.88Z"/>
<path d="M1134.95,650.99l.04.03,110.03-110.07h.41c1.03-1.16,2.04-2.35,3.13-3.45l354.77-354.77c16.95-18.82,27.29-43.85,27.29-71.15l-.02-110.16h34.04v210.96c0,19.87-8.05,37.86-21.08,50.88l-.04-.04-277.66,277.71h-.1l-190.58,190.58c-16.95,18.82-27.29,43.85-27.29,71.15l.02,277.8h-34.04v-378.6c0-19.87,8.05-37.86,21.07-50.88Z"/>
<path d="M1220.07,734.81l.04.04,193.85-193.9h.09l274.4-274.4c16.95-18.82,27.29-43.85,27.29-71.15l-.02-193.98h34.04v294.78c0,19.87-8.05,37.86-21.07,50.88l-.04-.04-193.85,193.9h-.09l-274.4,274.4c-16.95,18.83-27.29,43.85-27.29,71.15l.02,193.97h-34.04v-294.78c0-19.87,8.05-37.86,21.08-50.88Z"/>
<path d="M1558.43,179.38l-.03-.04-361.56,361.61h-.02l-106.76,106.76c-16.95,18.83-27.28,43.85-27.28,71.15l.02,361.61H0V1.43h1579.51v127.06c0,19.87-8.05,37.86-21.08,50.89Z"/>
</svg>