<?xml version="1.0" encoding="UTF-8"?>
<svg id="Foreground" xmlns="http://www.w3.org/2000/svg" viewBox="0 0 1920 1080">
<path d="M1699.84,650.79h-123.59s0-.01,0-.01h-187.82c-12.66,0-24.12,5.13-32.42,13.43l.02.02-415.79,415.77h76.92s390.16-390.16,390.16-390.16c11.99-10.8,27.94-17.39,45.33-17.39h123.59s0,.01,0,.01h187.82c12.66,0,24.12-5.13,32.42-13.43l-.02-.02,123.54-123.51v-76.93s-174.83,174.83-174.83,174.83c-11.99,10.8-27.94,17.39-45.33,17.39Z"/>
<path d="M1806.65,759.26l-230.4-.02h0s-80.96,0-80.96,0c-12.66,0-24.12,5.13-32.42,13.43l.02.02-307.33,307.3h76.93s281.69-281.69,281.69-281.69c11.99-10.8,27.94-17.39,45.33-17.39h16.73s294.62.01,294.62.01c12.66,0,24.12-5.13,32.42-13.43l-.02-.02,16.73-16.71v-76.92s-68.02,68.02-68.02,68.02c-11.99,10.8-27.94,17.39-45.33,17.39Z"/>
<path d="M1753.24,705.03h-177s0-.01,0-.01h-134.41c-12.66,0-24.12,5.13-32.42,13.43l.02.02-361.55,361.54h76.92s335.92-335.93,335.92-335.93c11.99-10.8,27.94-17.39,45.33-17.39h70.19s0,.01,0,.01h241.22c12.66,0,24.12-5.13,32.42-13.43l-.02-.02,70.13-70.1v-76.93s-121.42,121.42-121.42,121.42c-11.99,10.8-27.94,17.39-45.33,17.39Z"/>
<path d="M1691.77,579.17c-11.99,10.8-27.94,17.39-45.33,17.39h-70.19s0-.01,0-.01h-241.22c-12.66,0-24.12,5.13-32.42,13.43l.02.02-470.03,470.01h76.93s444.4-444.4,444.4-444.4c11.99-10.8,27.94-17.39,45.33-17.39l177,.02h0s134.41,0,134.41,0c12.66,0,24.12-5.13,32.42-13.43l-.02-.02,176.94-176.91v-76.74c-.74.65-1.5,1.3-2.2,2l-226.04,226.04Z"/>
<path d="M1920,0H2.39s0,1080,0,1080h799.5s498.63-498.63,498.63-498.63c11.99-10.8,27.94-17.39,45.33-17.39l230.4.02h0s80.96,0,80.96,0c12.66,0,24.12-5.13,32.42-13.43l-.02-.02,230.4-230.36V0Z"/>
</svg>