<?xml version="1.0" encoding="UTF-8"?>
<svg id="Foreground" xmlns="http://www.w3.org/2000/svg" viewBox="0 0 1920 1080">
<path d="M1871.33,463v84.28c0,5.68-2.3,10.82-6.03,14.55h-.01s-55.42,55.43-55.42,55.43h-.03l-78.45,78.45c-4.85,5.38-7.8,12.54-7.8,20.34v55.46s0,0,0,0v84.28c0,5.68-2.3,10.82-6.03,14.55h0s-55.42,55.43-55.42,55.43h-.03l-78.45,78.45c-4.85,5.38-7.8,12.54-7.8,20.34v55.46s-9.73,0-9.73,0v-84.28c0-5.68,2.3-10.82,6.03-14.55h0s55.42-55.43,55.42-55.43h.03l78.45-78.45c4.85-5.38,7.8-12.54,7.8-20.34v-55.46s0,0,0,0v-84.28c0-5.68,2.3-10.82,6.03-14.55h0s55.42-55.43,55.42-55.43h.03l78.45-78.45c4.85-5.38,7.8-12.54,7.8-20.34v-55.46h-.04v-55.49c0-7.81-2.95-14.97-7.8-20.35l-78.49-78.49h-.03s-55.45-55.46-55.45-55.46h0c-3.73-3.71-6.03-8.86-6.03-14.55v-84.32h0v-55.49c0-7.81-2.95-14.97-7.8-20.35L1627.46,0h34.54l55.45,55.46h0c3.73,3.71,6.03,8.86,6.03,14.55v84.32s0,0,0,0v55.49c0,7.81,2.95,14.97,7.8,20.35l78.49,78.49h.03l55.45,55.46h0c3.73,3.71,6.03,8.86,6.03,14.55v84.32h.03ZM1846.95,463v-60.35c0-5.68-2.3-10.83-6.03-14.56h0s-79.42-79.43-79.42-79.43h-.03s-54.51-54.51-54.51-54.51c-4.85-5.38-7.81-12.54-7.81-20.35v-79.46s0,0,0,0v-60.35c0-5.68-2.3-10.83-6.03-14.56h0S1613.68,0,1613.68,0h-34.45c.29.33.58.67.9.99l101.48,101.48c4.85,5.39,7.81,12.54,7.81,20.35v31.51s0,0,0,0v108.3c0,5.68,2.3,10.83,6.03,14.56h0s31.47,31.48,31.47,31.48h.12c.29.33.58.67.9.99l101.48,101.48c4.85,5.39,7.81,12.54,7.81,20.35v31.51s.04,0,.04,0v31.49c0,7.8-2.95,14.96-7.8,20.34l-101.43,101.43c-.31.31-.6.65-.9.99h-.12l-31.46,31.47h0c-3.72,3.71-6.03,8.86-6.03,14.54v108.24s0,0,0,0v31.49c0,7.81-2.95,14.96-7.8,20.34l-101.43,101.43c-.31.31-.6.65-.9.99h-.12l-31.46,31.47h0c-3.72,3.71-6.03,8.86-6.03,14.54v108.24s9.73,0,9.73,0v-79.42c0-7.8,2.95-14.96,7.8-20.34l54.49-54.49h.03l79.38-79.4h0c3.72-3.71,6.03-8.86,6.03-14.54v-60.31s0,0,0,0v-79.42c0-7.8,2.95-14.96,7.79-20.34l54.49-54.49h.03l79.38-79.4h0c3.72-3.71,6.03-8.86,6.03-14.54v-60.31s-.04,0-.04,0ZM1895.65,463v-108.3c0-5.68-2.3-10.83-6.03-14.56h0s-31.47-31.48-31.47-31.48h-.12c-.29-.33-.58-.67-.9-.99l-101.48-101.48c-4.85-5.39-7.81-12.54-7.81-20.35v-31.51s0,0,0,0V46.03c0-5.68-2.3-10.83-6.03-14.56h0S1710.33,0,1710.33,0h-34.54s54.51,54.51,54.51,54.51c4.85,5.38,7.81,12.54,7.81,20.35v79.46s0,0,0,0v60.35c0,5.68,2.3,10.83,6.03,14.56h0s79.42,79.43,79.42,79.43h.03l54.51,54.51c4.85,5.39,7.81,12.54,7.81,20.35v79.46s.01,0,.01,0v79.42c0,7.8-2.95,14.96-7.8,20.34l-54.49,54.49h-.03l-79.38,79.4h-.01c-3.72,3.71-6.03,8.86-6.03,14.54v60.31h0v79.42c0,7.8-2.95,14.96-7.79,20.34l-54.49,54.49h-.03l-79.38,79.4h0c-3.72,3.71-6.03,8.86-6.03,14.54v60.31s9.73,0,9.73,0v-31.49c0-7.8,2.95-14.96,7.79-20.34l101.43-101.43c.31-.31.6-.65.9-.99h.12l31.46-31.47h0c3.72-3.71,6.03-8.86,6.03-14.54v-108.24h0v-31.49c0-7.81,2.95-14.96,7.8-20.34l101.43-101.43c.31-.31.6-.65.9-.99h.12l31.46-31.47h0c3.72-3.71,6.02-8.86,6.02-14.54v-108.24h-.01ZM1920,463v-132.27c0-5.68-2.3-10.83-6.03-14.56h0s-7.5-7.5-7.5-7.5l-126.47-126.47c-4.85-5.39-7.81-12.54-7.81-20.35v-7.51s0-132.27,0-132.27c0-5.68-2.3-10.83-6.03-14.56h0S1758.65,0,1758.65,0h-34.54l30.54,30.54c4.85,5.39,7.81,12.54,7.81,20.35v103.44s0,0,0,0v36.35c0,5.68,2.3,10.83,6.03,14.56h0s103.42,103.43,103.42,103.43h0l30.54,30.54c4.85,5.38,7.81,12.54,7.81,20.35v103.44s0,0,0,0v103.39c0,7.8-2.95,14.96-7.79,20.34l-30.52,30.52h0l-103.37,103.39h0c-3.72,3.71-6.03,8.86-6.03,14.54v36.33s0,0,0,0v103.39c0,7.8-2.95,14.96-7.79,20.34l-30.52,30.52h0l-103.37,103.39h0c-3.72,3.71-6.03,8.86-6.03,14.54v36.33s9.73,0,9.73,0v-7.51c0-7.8,2.95-14.96,7.8-20.34l126.4-126.4,7.5-7.51h0c3.72-3.71,6.03-8.86,6.03-14.54v-132.21s0-7.51,0-7.51c0-7.81,2.95-14.96,7.8-20.34l126.4-126.4,7.5-7.51h0c3.72-3.71,6.03-8.86,6.03-14.54v-132.21h0ZM1822.6,463v-36.35c0-5.68-2.3-10.83-6.03-14.56h0s-103.42-103.43-103.42-103.43h0l-30.54-30.54c-4.85-5.39-7.81-12.54-7.81-20.35v-103.44s0,0,0,0v-36.35c0-5.68-2.3-10.83-6.03-14.56h0S1565.33,0,1565.33,0h0S1530.79,0,1530.79,0H0s0,1080,0,1080h1517.46s3.92,0,3.92,0h5.81v-103.39c0-7.8,2.95-14.96,7.79-20.34l30.52-30.52h0l103.37-103.39h0c3.72-3.71,6.03-8.86,6.03-14.54v-36.33h0v-103.39c0-7.8,2.95-14.96,7.79-20.34l30.52-30.52h0l103.37-103.39h0c3.72-3.71,6.03-8.86,6.03-14.54v-36.33h-.05Z"/>
</svg>