<?xml version="1.0" encoding="UTF-8"?>
<svg id="Foreground" xmlns="http://www.w3.org/2000/svg" viewBox="0 0 1920 1080">
<path class="cls-1" d="M541.88,287.28l.02-.02,73.35,73.38h.27c.68.78,1.36,1.57,2.09,2.3l236.51,236.51c11.3,12.55,18.19,29.23,18.19,47.43v73.44s-.01,0-.01,0v252.4c0,13.25,5.37,25.24,14.05,33.92l.02-.02,73.35,73.38h80.5s-127.05-127.05-127.05-127.05c-11.3-12.55-18.19-29.23-18.19-47.43l.02-185.2h0v-140.64c0-13.25-5.37-25.24-14.05-33.92l-.02.02-185.11-185.14h-.07l-127.05-127.05c-11.3-12.55-18.19-29.23-18.19-47.43l.02-185.2h-22.7s0,252.4,0,252.4c0,13.25,5.37,25.24,14.05,33.92Z"/>
<path class="cls-1" d="M471.08,309.23c0,13.25,5.37,25.24,14.05,33.93l.02-.03,17.48,17.51,294.74,294.74c11.3,12.55,18.19,29.23,18.19,47.43v17.51s-.01,308.28-.01,308.28c0,13.25,5.37,25.24,14.05,33.93l.02-.03,17.48,17.51h80.49s-71.17-71.17-71.17-71.17c-11.3-12.55-18.19-29.23-18.19-47.43l.02-241.08h0v-84.71c0-13.25-5.37-25.24-14.05-33.92l-.02.02-241.04-241.07h-.02l-71.17-71.17c-11.3-12.55-18.19-29.23-18.19-47.43l.02-241.08h-22.7s0,308.28,0,308.28Z"/>
<path class="cls-1" d="M712.13,119.59l.02-.02,241.04,241.07h.02l71.17,71.17c11.3,12.55,18.19,29.23,18.19,47.43l-.02,241.08h0v84.71c0,13.25,5.37,25.24,14.05,33.92l.02-.02,241.04,241.07h80.5s-294.74-294.74-294.74-294.74c-11.3-12.55-18.19-29.23-18.19-47.43v-17.51s.01-308.28.01-308.28c0-13.25-5.37-25.24-14.05-33.93l-.02.03-17.48-17.51L738.95,65.89c-11.3-12.55-18.19-29.23-18.19-47.43V.95s-22.68,0-22.68,0v84.71c0,13.25,5.37,25.24,14.05,33.92Z"/>
<path class="cls-1" d="M598.63,231.4l.02-.02,129.23,129.26h.06l182.93,182.93c11.3,12.55,18.19,29.24,18.19,47.43l-.02,129.32h0v196.52c0,13.25,5.37,25.24,14.05,33.92l.02-.02,129.23,129.26h80.5s-182.93-182.93-182.93-182.93c-11.3-12.55-18.19-29.24-18.19-47.43l.02-129.32h0v-196.52c0-13.25-5.37-25.24-14.05-33.92l-.02.02-129.23-129.26h-.06l-182.93-182.93c-11.3-12.55-18.19-29.24-18.19-47.43l.02-129.32h-22.7s0,196.52,0,196.52c0,13.25,5.37,25.24,14.05,33.92Z"/>
<path class="cls-1" d="M655.38,175.52l.02-.02,185.11,185.14h.07l127.05,127.05c11.3,12.55,18.19,29.23,18.19,47.43l-.02,185.2h0v140.64c0,13.25,5.37,25.24,14.05,33.92l.02-.02,185.11,185.14h80.29c-.68-.78-1.36-1.57-2.09-2.3l-236.51-236.51c-11.3-12.55-18.19-29.23-18.19-47.43v-73.44s.01,0,.01,0v-252.4c0-13.25-5.37-25.24-14.05-33.92l-.02.02-73.35-73.38h-.27c-.68-.78-1.36-1.57-2.09-2.3l-236.51-236.51c-11.3-12.55-18.19-29.23-18.19-47.43V.95s-22.68,0-22.68,0v140.64c0,13.25,5.37,25.24,14.05,33.92Z"/>
</svg>