<?xml version="1.0" encoding="UTF-8"?>
<svg id="Foreground" xmlns="http://www.w3.org/2000/svg" viewBox="0 0 1920 1080">
<path class="cls-1" d="M159.62,568.31l-1.3,1.3c-55.25,55.66-104.41,118.48-124.42,156.77C18.11,756.58,4.72,795.85,0,841.92v-504.94c3.68.88,41.37,9.51,72.94,2.59,91.35-20.03,122.17-106.8,122.17-106.8,0,0,2.15,29.37-8.42,55.89-13.63,34.19-40.11,59.3-40.11,59.3,0,0,157.29-3.7,197.52-179.15,11.37-49.56,2.41-103.09-5.71-135.75,109.41-45.67,197.07,83.74,167.97,161.01-17.92,47.6-46.69,74.22-70.22,97.74-20.13,20.13-50.9,50.69-95.18,95.18h0l-47.88,47.88c-27.76,27.76-66.29,38.2-102.15,31.31,6.89,35.86-3.55,74.39-31.31,102.15Z"/>
<path class="cls-1" d="M166.03,1079.98c12.35-.21,25.35-2.13,38.95-6.26.74-.21,1.48-.42,2.22-.65,0,0,.02,0,.03,0t0,0c6.71-2.14,13.27-5.14,19.53-9.03,40.36-25.03,53.14-77.46,28.56-117.09-24.59-39.63-77.23-51.46-117.59-26.42-27.68,17.17-42.39,47.23-40.96,77.21-58.88,22.09-90.26-40.88-66.77-106.32,7.31-20.37,15.44-40.7,37.39-65.7,12.48-14.23,87.08-89.24,131.36-133.73l42.27-42.27c27.76-27.76,66.29-38.2,102.15-31.31-6.89-35.86,3.55-74.39,31.31-102.15l6.48-6.48c55.25-55.66,104.32-119.43,124.33-157.72,22.75-43.54,40.58-105.96,34.52-180.43-5.56-68.25-42.22-108.13-45.05-111.64-17.69-21.9-49.6-47.75-95.1-55.84-8.31-1.48-21.23-3.99-39.1-4.13V0h1559.45s0,1080,0,1080H166.03s0-.02,0-.02Z"/>
</svg>