<?xml version="1.0" encoding="UTF-8"?>
<svg id="Foreground" xmlns="http://www.w3.org/2000/svg" viewBox="0 0 1920 1080">
<path d="M1343.18,1080v-105.57c0-9.95,4.03-18.95,10.55-25.46l.02.02,138.95-138.98h.05l95.37-95.37c8.48-9.42,13.66-21.94,13.66-35.61v-139.02s0,0,0,0h0v-105.57c0-9.95,4.03-18.95,10.55-25.46l.02.02,138.95-138.98h.05l95.37-95.37c8.49-9.42,13.66-21.94,13.66-35.61V0s-.01,0-.01,0h17.03s0,189.47,0,189.47c0,9.95-4.03,18.95-10.55,25.46l-.02-.02-55.06,55.09h-.2c-.51.58-1.02,1.18-1.57,1.72l-177.54,177.54c-8.48,9.42-13.65,21.94-13.65,35.61v55.13s0,0,0,0v189.47c0,9.95-4.03,18.95-10.55,25.46l-.02-.02-55.06,55.09h-.2c-.51.58-1.02,1.18-1.57,1.73l-177.54,177.54c-8.48,9.42-13.66,21.94-13.66,35.61v55.13s-17.02,0-17.02,0ZM1402.82,1080v-13.14c-.01-13.66,5.16-26.18,13.64-35.61l221.25-221.25,13.12-13.14.02.02c6.52-6.52,10.55-15.52,10.55-25.47v-231.41s0,0,0,0v-13.14c-.01-13.66,5.16-26.18,13.65-35.61l221.25-221.25,13.12-13.14.02.02c6.52-6.52,10.55-15.52,10.55-25.47V0h-17.04s0,0,0,0v180.97c.01,13.66-5.16,26.18-13.64,35.6l-53.43,53.43h-.01l-180.94,180.96-.02-.02c-6.52,6.52-10.55,15.52-10.55,25.46v63.59s0,0,0,0h0v180.97c.01,13.66-5.16,26.18-13.64,35.6l-53.43,53.43h-.01l-180.94,180.96-.02-.02c-6.52,6.52-10.55,15.52-10.55,25.46v63.59h17.03ZM1275.02,1080v-139.02c-.01-13.66,5.16-26.18,13.64-35.6l95.37-95.37h.05l138.95-138.98.02.02c6.52-6.52,10.55-15.52,10.55-25.46v-105.57s0,0,0,0v-139.02c-.01-13.66,5.16-26.18,13.64-35.61l95.37-95.37h.05l138.95-138.98.02.02c6.52-6.52,10.55-15.52,10.55-25.46V0h-17.03s0,0,0,0v55.13c.01,13.66-5.16,26.19-13.64,35.61l-177.54,177.54c-.55.55-1.06,1.14-1.57,1.73h-.2l-55.06,55.09-.02-.02c-6.52,6.52-10.55,15.52-10.55,25.47v189.47s0,0,0,0h0v55.13c.01,13.66-5.16,26.19-13.64,35.61l-177.54,177.54c-.55.55-1.05,1.14-1.57,1.73h-.21l-55.06,55.09-.02-.02c-6.52,6.52-10.55,15.52-10.55,25.47v189.47h17.04ZM1317.62,1080v-97.07c-.01-13.66,5.16-26.18,13.64-35.61l137.32-137.32h.05l97.01-97.03.02.02c6.52-6.52,10.55-15.52,10.55-25.46v-147.52s0,0,0,0v-97.07c-.01-13.66,5.16-26.18,13.64-35.61l137.32-137.32h.05s97.01-97.03,97.01-97.03l.02.02c6.52-6.52,10.55-15.52,10.55-25.46V0h-17.03s0,0,0,0v97.08c.01,13.66-5.16,26.18-13.64,35.6l-137.32,137.32h-.05l-97.01,97.03-.02-.02c-6.52,6.52-10.55,15.52-10.55,25.46v147.52s0,0,0,0h0v97.07c.01,13.66-5.16,26.18-13.64,35.61l-137.32,137.32h-.05l-97.01,97.03-.02-.02c-6.52,6.52-10.55,15.52-10.55,25.47v147.52h17.04ZM0,0v1080h1232.43s-.01-180.97-.01-180.97c0-13.66,5.17-26.18,13.66-35.61l53.43-53.43h.01l180.94-180.97.02.02c6.52-6.52,10.55-15.52,10.55-25.47v-63.59s0,0,0,0v-180.97c-.01-13.66,5.16-26.18,13.64-35.61l53.43-53.43h.01l180.94-180.97.02.02c6.52-6.52,10.55-15.52,10.55-25.46V0H0Z"/>
</svg>