<?xml version="1.0" encoding="UTF-8"?>
<svg id="Foreground" xmlns="http://www.w3.org/2000/svg" viewBox="0 0 1920 1080">
<path d="M284.16,553.98l159.52.02h0s242.41,0,242.41,0c16.34,0,31.14-6.62,41.84-17.33l-.03-.03L1264.57,0h-99.28s-503.58,503.58-503.58,503.58c-15.48,13.94-36.06,22.44-58.51,22.44l-159.52-.02h0s-242.41,0-242.41,0c-16.34,0-31.14,6.62-41.84,17.33l.03.03L0,702.78v99.3s225.65-225.66,225.65-225.66c15.48-13.94,36.06-22.44,58.51-22.44Z"/>
<path d="M146.3,413.98l297.38.02h0s104.49,0,104.49,0c16.34,0,31.14-6.62,41.85-17.33l-.03-.03L986.66,0H0s0,424.93,0,424.93v99.28s87.8-87.8,87.8-87.8c15.48-13.94,36.06-22.44,58.51-22.44Z"/>
<path d="M215.23,483.98l228.45.02h0s173.48,0,173.48,0c16.34,0,31.14-6.62,41.85-17.33l-.03-.03L1125.64,0h-99.28s-433.58,433.58-433.58,433.58c-15.48,13.94-36.06,22.44-58.51,22.44l-90.59-.02h0s-311.35,0-311.35,0c-16.34,0-31.14,6.62-41.85,17.33l.03.03L0,563.84v99.3s156.72-156.72,156.72-156.72c15.48-13.94,36.06-22.44,58.51-22.44Z"/>
<path d="M294.58,646.42c15.48-13.94,36.06-22.44,58.51-22.44l90.59.02h0s311.35,0,311.35,0c16.34,0,31.14-6.62,41.84-17.33l-.03-.03L1403.51,0h-99.29s-573.58,573.58-573.58,573.58c-15.48,13.94-36.06,22.44-58.51,22.44l-228.45-.02h0s-173.49,0-173.49,0c-16.34,0-31.14,6.62-41.85,17.33l.03.03L0,841.7v99.05c.96-.84,1.93-1.67,2.84-2.58l291.75-291.75Z"/>
<path d="M363.58,716.42c15.48-13.94,36.06-22.44,58.51-22.44l21.6.02h380.27c16.34,0,31.14-6.62,41.85-17.33l-.03-.03L1542.43,0h-99.28s-643.58,643.58-643.58,643.58c-15.48,13.94-36.06,22.44-58.51,22.44l-297.38-.02h0s-104.49,0-104.49,0c-16.34,0-31.14,6.62-41.84,17.33l.03.03L0,980.7v99.3s363.58-363.58,363.58-363.58Z"/>
</svg>