<?xml version="1.0" encoding="UTF-8"?><svg id="Foreground" xmlns="http://www.w3.org/2000/svg" viewBox="0 0 1920 1080">
<path d="M1196.41,818.7l.02-277.34h0v-210.62c0-19.84-8.04-37.8-21.04-50.8l-.03.04L898.15,2.71h-120.24c1.02,1.16,2.03,2.35,3.13,3.44l354.19,354.19c16.93,18.79,27.24,43.78,27.24,71.03l-.02,109.98h0v377.98c0,19.84,8.04,37.8,21.04,50.8l.03-.04,109.85,109.89h120.55s-190.27-190.27-190.27-190.27c-16.93-18.79-27.24-43.78-27.24-71.03Z"/>
<path d="M1478.61,638.61c-16.93-18.79-27.24-43.78-27.24-71.03l.02-26.22V79.7c0-19.84-8.04-37.8-21.04-50.8l-.03.04-26.18-26.22h-120.53s106.59,106.59,106.59,106.59c16.93,18.79,27.24,43.78,27.24,71.03l-.03,361.03h0v126.86c0,19.84,8.04,37.8,21.04,50.8l.03-.04,360.97,361.02h120.56s-441.39-441.39-441.39-441.39Z"/>
<path d="M1281.4,735.02l.02-193.66h0V247.06c0-19.84-8.04-37.8-21.04-50.8l-.03.04L1066.81,2.71h-120.55s273.95,273.95,273.95,273.95c16.93,18.79,27.24,43.78,27.24,71.03l-.02,193.66h0v294.3c0,19.84,8.04,37.8,21.04,50.8l.03-.04,193.53,193.58h120.55s-273.95-273.95-273.95-273.95c-16.93-18.79-27.24-43.78-27.24-71.03Z"/>
<path d="M1393.62,722.37c-16.93-18.79-27.24-43.78-27.24-71.03l.02-109.98h0V163.37c0-19.84-8.04-37.8-21.04-50.8l-.03.03L1235.48,2.71h-120.55s190.27,190.27,190.27,190.27c16.93,18.79,27.24,43.78,27.24,71.03l-.02,277.34h0v210.62c0,19.84,8.04,37.8,21.04,50.8l.03-.04,277.21,277.26h120.24c-1.02-1.16-2.03-2.35-3.13-3.44l-354.19-354.19Z"/>
<path d="M0,1080h1245.26l-106.59-106.59c-16.93-18.79-27.24-43.78-27.24-71.03l.03-361.03h0v-126.86c0-19.84-8.04-37.8-21.04-50.8l-.03.04L729.41,2.71,0,0v1080Z"/>
</svg>