<?xml version="1.0" encoding="UTF-8"?>
<svg id="Foreground" xmlns="http://www.w3.org/2000/svg" viewBox="0 0 1920 1080">
<path d="M108.54,811.53c-.55-.55-1.06-1.14-1.57-1.73h-.2s-55.1-55.13-55.1-55.13l-.02.02c-6.52-6.52-10.56-15.53-10.56-25.48v-188.82s0-.79,0-.79v-188.82c0-9.95,4.03-18.96,10.55-25.48l.02.02,55.1-55.13h.2c.51-.58,1.02-1.18,1.57-1.73l177.67-177.67c8.49-9.43,13.66-21.96,13.66-35.63V0s0,0,0,0h17.05v105.65c0,9.95-4.03,18.96-10.56,25.48l-.02-.02-139.05,139.08h-.05l-95.44,95.44c-8.49,9.43-13.67,21.96-13.67,35.63v138.34h.01v139.12c-.01,13.67,5.16,26.2,13.65,35.63l95.44,95.44h.05s139.05,139.08,139.05,139.08l.02-.02c6.52,6.52,10.56,15.53,10.56,25.48v105.65h-17.05v-55.17c0-13.67-5.16-26.2-13.66-35.63l-177.67-177.67ZM371.47,905.25c8.49,9.43,13.67,21.96,13.67,35.63v139.12s17.04,0,17.04,0v-189.6c0-9.96-4.03-18.96-10.55-25.48l-.02.02-55.1-55.13h-.2c-.51-.58-1.02-1.18-1.57-1.73l-177.67-177.67c-8.49-9.43-13.66-21.96-13.66-35.63v-55.17s0,0,0,0v-54.38c0-13.67,5.16-26.2,13.66-35.63l177.67-177.67c.55-.55,1.06-1.14,1.57-1.73h.2s55.1-55.13,55.1-55.13l.02.02c6.52-6.52,10.56-15.53,10.56-25.48V0s-17.05,0-17.05,0h0v139.12c.01,13.67-5.16,26.2-13.65,35.63l-95.44,95.44h-.05l-139.05,139.08-.02-.02c-6.52,6.52-10.56,15.53-10.56,25.48v104.86s0,.79,0,.79v104.86c0,9.95,4.03,18.96,10.56,25.48l.02-.02,139.05,139.08h.05l95.44,95.44ZM328.84,947.22c8.49,9.43,13.66,21.96,13.66,35.63v97.14s17.04,0,17.04,0v-147.63c0-9.95-4.03-18.96-10.55-25.48l-.02.02-97.08-97.1h-.05l-137.42-137.42c-8.49-9.43-13.66-21.96-13.66-35.63v-96.36h.01v-.79h0v-96.36c-.01-13.67,5.16-26.2,13.65-35.63l137.42-137.42h.05l97.08-97.11.02.02c6.52-6.52,10.55-15.53,10.55-25.48V0s-17.05,0-17.05,0h0v97.15c.01,13.67-5.16,26.2-13.65,35.63l-137.42,137.42h-.05s-97.08,97.11-97.08,97.11l-.02-.02c-6.52,6.52-10.56,15.53-10.56,25.48v147.63s0,0,0,0v146.84c0,9.95,4.03,18.96,10.55,25.48l.02-.02,97.08,97.11h.05l137.42,137.42ZM-1.54,308.81v230.79s0,.79,0,.79v230.79c0,9.95,4.03,18.96,10.55,25.49l.02-.02,13.13,13.15,221.41,221.41c8.49,9.43,13.66,21.96,13.66,35.63v13.15s17.04,0,17.04,0v-63.63c0-9.95-4.03-18.96-10.56-25.48l-.02.02-181.07-181.1h-.01l-53.47-53.47c-8.49-9.43-13.67-21.96-13.67-35.63v-181.1h.01v-180.31c-.01-13.67,5.16-26.2,13.65-35.63l53.47-53.47h.01l181.07-181.1.02.02c6.52-6.52,10.56-15.53,10.56-25.48V0s-17.05,0-17.05,0v13.15c.01,13.67-5.16,26.2-13.65,35.63L22.17,270.2l-13.13,13.15-.02-.02c-6.52,6.52-10.55,15.53-10.55,25.48ZM168.98,476.76v62.84s0,.79,0,.79v62.84c0,9.95,4.03,18.96,10.56,25.48l.02-.02,181.07,181.1h.01l53.47,53.46c8.49,9.43,13.67,21.96,13.67,35.63v181.1s1492.23,0,1492.23,0V0s-1492.24,0-1492.24,0h0v181.1c.01,13.67-5.16,26.2-13.65,35.63l-53.47,53.47h-.01l-181.07,181.1-.02-.02c-6.52,6.52-10.56,15.53-10.56,25.48Z"/>
</svg>