<?xml version="1.0" encoding="UTF-8"?>
<svg id="Foreground" xmlns="http://www.w3.org/2000/svg" viewBox="0 0 1920 1080"><path d="M191.09,342.91h105.93s0-.01,0-.01h160.97c10.85,0,20.68,4.4,27.79,11.51l-.02.02,725.59,725.57h-65.93S441.79,376.38,441.79,376.38c-10.28-9.26-23.95-14.9-38.85-14.9h-105.93s0,.01,0,.01h-160.97c-10.85,0-20.68-4.4-27.79-11.51l.02-.02L2.39,244.1v-65.94s149.84,149.85,149.84,149.85c10.28,9.26,23.95,14.9,38.85,14.9Z"/>
<path d="M99.54,435.88h197.47s0-.01,0-.01h69.39c10.85,0,20.68,4.4,27.79,11.51l-.02.02,632.63,632.6h-65.94S350.21,469.34,350.21,469.34c-10.28-9.26-23.95-14.9-38.85-14.9h-14.34s-252.52.01-252.52.01c-10.85,0-20.68-4.4-27.79-11.51l.02-.02-14.34-14.32v-65.93s58.3,58.3,58.3,58.3c10.28,9.26,23.95,14.9,38.85,14.9Z"/>
<path d="M145.31,389.39h151.7s0-.01,0-.01h115.2c10.85,0,20.68,4.4,27.79,11.51l-.02.02,679.1,679.09h-65.93S396.02,422.86,396.02,422.86c-10.28-9.26-23.95-14.9-38.85-14.9h-60.15s0,.01,0,.01H90.27c-10.85,0-20.68-4.4-27.79-11.51l.02-.02L2.39,336.36v-65.94s104.07,104.07,104.07,104.07c10.28,9.26,23.95,14.9,38.85,14.9Z"/>
<path d="M198.01,281.53c10.28,9.26,23.95,14.9,38.85,14.9h60.15s0-.01,0-.01h206.75c10.85,0,20.68,4.4,27.79,11.51l-.02.02,772.08,772.06h-65.93S487.57,329.89,487.57,329.89c-10.28-9.26-23.95-14.9-38.85-14.9h-151.7s0,.01,0,.01h-115.2c-10.85,0-20.68-4.4-27.79-11.51l.02-.02L2.39,151.85v-65.77c.64.56,1.28,1.11,1.88,1.71l193.73,193.73Z"/>
<path d="M1920,1080h-590.07S533.34,283.41,533.34,283.41c-10.28-9.26-23.95-14.9-38.85-14.9h-197.47s0,.01,0,.01h-69.39c-10.85,0-20.68-4.4-27.79-11.51l.02-.02L2.39,59.55V0h1917.61v1080Z"/>
</svg>