<svg xmlns="http://www.w3.org/2000/svg" width="162.38" height="41.09" viewBox="0 0 162.38 41.09">
  <defs>
    <style>
      .cls-1 {
        stroke: #ec1c24;
        stroke-miterlimit: 3.86;
        stroke-width: .22px;
      }

      .cls-1, .cls-2 {
        fill: #faba00;
      }

      .cls-3, .cls-4, .cls-2 {
        stroke-width: 0px;
      }

      .cls-4 {
        fill: #e20714;
      }
    </style>
  </defs>
  <path class="cls-4" d="M0,.04h36.27v25.13c0,7.69-8.09,15.92-18.14,15.92C8.62,41.09,0,32.72,0,25.17V.04h0Z"/>
  <path class="cls-2" d="M.41,28.03c1.51-2.01,2.56-.16,3.71-3.11.71-1.82.29-3.74,4.46-4.82,4.71-1.22,1.22-5.39,7.12-6.83,4.52-1.1.85-6.01,7.47-7.04,3.67-.57,1.47-4.92,5.74-6.22l7.33.03v6.03c-5.81.47-3.37,5.92-7.9,6.57-5.87.84-2.08,5.89-8.12,7.04-4.52.86-1.65,5.32-6.33,6.54-4.81,1.26-3.33,3.02-4.82,5.18-1.44,2.08-3.7,1.28-4.89,3.18-1.46-1.4-3.26-4.21-3.78-6.54H.41Z"/>
  <path class="cls-1" d="M27.71,27.49c-.03.62-1.6,1.01-1.44,1.08.86.39,1.4.7,1.4.7,1.07-.41,1.5-1.28,1.41-2.14-.1-.98-1.05-1.52-1.98-1.19-.2.07-.54.32-.49.63.05.32.61-.1.61.05,0,.18-.17-.05-.36.27-.14.24.27.51.63.22.11.06.23.17.22.38h0Z"/>
  <path class="cls-1" d="M24.76,36.14s.02.69.02.69c-.98.12-.5.88-1.22.83-.74-.2-.26-1.43.49-1.74.39.16.4.08.71.23h0Z"/>
  <path class="cls-2" d="M23.14,21.11s.22.81.57,1.21c.23.33,1.02.77,1.03-.46-.47-.26-.78-.75-.78-1.32,0-.83.68-1.51,1.51-1.51s1.51.68,1.51,1.51c0,.56-.3,1.04-.75,1.3,0,1.25.8.8,1.03.48.35-.4.57-1.21.57-1.21,3.78.13,4.02-.52,4.16-.24.2.9-2.17,1.25-1.86,1.36.73.32,1.72-.18,1.66.11-.18.89-2.12.91-2.23,1.1-.06.28,1.36.21,1.42.41.14.54-2.33.59-2.49.56-.18.21.97.2.9.45-.21.48-1.83-.04-1.9.01-.24.21.76.45.47.68-.09.13-1.17.12-1.8-.5l-.06,12.55c0,.68-1.28.92-1.22,0l-.05-12.56c-.62.63-1.73.65-1.82.51-.29-.23.7-.47.47-.68-.07-.06-1.69.46-1.9-.01-.07-.25,1.08-.24.9-.45-.15.03-2.63-.03-2.49-.56.06-.2,1.47-.13,1.42-.41-.11-.18-2.05-.21-2.23-1.1-.06-.29.93.21,1.66-.11.31-.11-2.05-.46-1.86-1.36.14-.28.38.36,4.16.24h0Z"/>
  <path class="cls-1" d="M26.27,28.62c2.13.41,3.03,3.06.64,3.82-.02,0-.35-.15-.66-.29-.03.03,0-.37,0-.37,1.35-.54,1.1-1.83-.85-2.15-3.4-.57-3.63-1.34-3.63-2.36,0-.74.8-1.74,1.93-1.36.2.07.65.36.56.68-.1.34-.66-.12-.72.05-.04.11.46.06.57.21.16.23-.42.6-.89.23-.11.06-.22.27-.14.46.19.45.65.51,1.88.79.41.09.68.07,1.31.28h0Z"/>
  <path class="cls-1" d="M23.5,29.23s.69.24,1.22.36c.03-.03,0,.44,0,.44-.48.09-.77.48-.8.69-.06.57.13.83,1.69,1.33,2.79.63,2.49,1.97,2.37,2.46-.15.62-.72,1.01-1.31,1.22-.14,0-.18-.12-.44-.26-.03-.01,0-.33,0-.33,0-.04.62-.45.62-.87,0-.35-.03-.8-1.37-1.16-4-.71-3.26-3.23-1.97-3.88h0Z"/>
  <path class="cls-1" d="M23.28,35.29c.48.48,1.31.73,1.31.73.76.36.81.36,1.27.57.99.36.81,1.17,1.28,1.07.57-.2.35-1.36-.59-1.86-.73-.4-1.06-.48-1.47-.67-1.34-.64-1.39-1.34-.37-2.07-.45-.22-.74-.22-1.03-.43-.76.34-1.44,1.63-.41,2.67h0Z"/>
  <polygon class="cls-2" points="10.09 8.02 10.09 18.09 5.67 18.09 5.67 8.02 10.09 8.02 10.09 8.02"/>
  <polygon class="cls-2" points="2.54 2.65 11.52 2.65 13.9 4.71 13.9 7.48 10.09 7.48 5.67 7.48 2.54 7.48 2.54 2.65 2.54 2.65"/>
  <g>
    <path class="cls-3" d="M54.04,13.95v13.58h-3.79v-13.58h-5.11v-3.22h14.04v3.22h-5.14Z"/>
    <path class="cls-3" d="M62.78,24.27l-1.32,3.26h-3.91l7.3-16.8h3.91l7.18,16.8h-4.06l-1.32-3.26h-7.78ZM66.69,14.69l-2.66,6.53h5.3l-2.64-6.53Z"/>
    <path class="cls-3" d="M92.51,27.53v-11.33l-4.46,9.62h-2.47l-4.46-9.62v11.33h-3.43V10.73h4.25l4.9,10.27,4.87-10.27h4.22v16.8h-3.41Z"/>
    <path class="cls-3" d="M106.77,10.73c4.27,0,6.72,2.11,6.72,5.83,0,3.91-2.45,6.17-6.72,6.17h-3.34v4.8h-3.79V10.73h7.13ZM103.43,19.56h3.14c2.11,0,3.31-.96,3.31-2.88s-1.2-2.81-3.31-2.81h-3.14v5.69Z"/>
    <path class="cls-3" d="M119.7,13.88v3.65h8.11v3.14h-8.11v3.72h9.26v3.14h-13.06V10.73h12.79v3.14h-9Z"/>
    <path class="cls-3" d="M139.6,22.73h-3.87v4.8h-3.79V10.73h7.29c4.39,0,6.89,2.11,6.89,5.83,0,2.59-1.1,4.46-3.14,5.42l3.58,5.54h-4.3l-2.66-4.8ZM139.24,19.56c2.09,0,3.29-.96,3.29-2.88s-1.2-2.81-3.29-2.81h-3.5v5.69h3.5Z"/>
    <path class="cls-3" d="M153.11,13.88v3.65h8.11v3.14h-8.11v3.72h9.26v3.14h-13.06V10.73h12.79v3.14h-9Z"/>
  </g>
</svg>