<svg width="66" height="463" viewBox="0 0 66 463" fill="none" xmlns="http://www.w3.org/2000/svg">
<g clip-path="url(#clip0)">
<path d="M47.5798 51.7054V33.4331H0V18.9172H47.5798V0.64502H66V51.7054H47.5798Z" fill="#E14E32"/>
<path d="M8.60515 100.818V73.4029L0 70.5252V53.9719L66 76.1787V96.8702L0 119.064V103.683L8.60515 100.818ZM26.971 94.6292L46.098 88.1734V86.0342L26.971 79.5912V94.6292Z" fill="#E14E32"/>
<path d="M66 132.536V153.049L38.9339 165.592V167.451L66 179.904V201.13H0V186.551H37.4929V184.768L12.3436 173.741V160.04L37.4929 149.013V147.077H0V132.536H66Z" fill="#E14E32"/>
<path d="M42.2781 271.672C28.6838 271.672 18.461 261.638 18.461 248.46V234.224H0V219.657H66V248.498C66 261.677 55.8587 271.672 42.2781 271.672ZM42.2781 256.622C45.7174 256.622 47.6342 253.578 47.6342 248.103V234.224H36.8268V248.103C36.8268 253.578 38.7436 256.583 42.2781 256.583V256.622Z" fill="#E14E32"/>
<path d="M18.3658 332.231H0V286.01H66V331.786H47.5798V300.615H42.1421V328.921H24.2929V300.615H18.3658V332.231Z" fill="#E14E32"/>
<path d="M18.461 372.647V362.88H0V348.263H66V377.116C66 390.282 55.8587 400.316 42.2781 400.316C37.9544 400.378 33.6991 399.302 29.9958 397.211C26.2926 395.119 23.29 392.097 21.3294 388.487L0 401.399V383.75L18.461 372.647ZM36.8268 362.88V376.76C36.8268 382.235 38.7436 385.278 42.2645 385.278C45.7854 385.278 47.5798 382.235 47.5798 376.76V362.88H36.8268Z" fill="#E14E32"/>
<path d="M18.3658 462.149H0V415.927H66V461.703H47.5798V430.52H42.1421V458.838H24.2929V430.52H18.3658V462.149Z" fill="#E14E32"/>
</g>
<defs>
<clipPath id="clip0">
<rect width="66" height="461.504" fill="white" transform="translate(0 0.64502)"/>
</clipPath>
</defs>
</svg>
