<svg width="68" height="698" viewBox="0 0 68 698" fill="none" xmlns="http://www.w3.org/2000/svg">
<g clip-path="url(#clip0)">
<path d="M48.5635 15.2594H42.5675V41.0092H24.2816V15.2594H1.13672V0.630859H66.8493V44.2359H48.5635V15.2594Z" fill="#E14E32"/>
<path d="M66.8493 59.77V74.3985H1.13672V59.77H66.8493Z" fill="#E14E32"/>
<path d="M19.4225 134.698H1.13672V92.8784H66.8493V107.507H19.4767L19.4225 134.698Z" fill="#E14E32"/>
<path d="M66.8493 203.887H1.13672V189.258H24.5659V164.401H1.13672V149.773H66.8493V164.401H43.8397V189.258H66.8493V203.887Z" fill="#E14E32"/>
<path d="M9.71793 264.289V236.83L1.13672 233.948V217.368L66.8493 239.623V260.348L1.13672 282.59V267.184L9.71793 264.289ZM28.0038 258.09L47.0475 251.637V249.482L28.0038 243.015V258.09Z" fill="#E14E32"/>
<path d="M19.5173 320.456V310.674H1.13672V296.058H66.8493V324.945C66.8493 338.133 56.7522 348.183 43.2307 348.183C38.9273 348.245 34.6915 347.169 31.0045 345.077C27.3175 342.985 24.3272 339.961 22.3732 336.347L1.13672 349.267V331.59L19.5173 320.456ZM37.8031 310.674V324.575C37.8031 330.047 39.7116 333.095 43.2171 333.095C46.7227 333.095 48.5499 330.047 48.5499 324.575V310.674H37.8031Z" fill="#E14E32"/>
<path d="M66.8493 363.806V384.352L39.9011 396.915V398.802L66.8493 411.301V432.574H1.13672V417.92H38.4663V416.122L13.4265 405.09V391.354L38.4663 380.322V378.434H1.13672V363.806H66.8493Z" fill="#E14E32"/>
<path d="M34 448.287C53.328 448.287 68 462.469 68 481.319C68 500.169 53.328 514.3 34 514.3C14.672 514.3 0 500.029 0 481.281C0 462.533 14.672 448.287 34 448.287ZM34 499.302C42.7572 499.302 49.3352 491.586 49.3352 481.357C49.3352 471.129 42.7572 463.4 34 463.4C25.2428 463.4 18.6648 471.052 18.6648 481.357C18.6648 491.662 25.2428 499.225 34 499.225V499.302Z" fill="#E14E32"/>
<path d="M66.8493 530.013V545.891L32.4839 569.039V570.723H66.8628V585.262H1.13672V569.307L35.5157 546.248V544.628H1.13672V530.013H66.8493Z" fill="#E14E32"/>
<path d="M66.8493 603.767V618.396H1.13672V603.767H66.8493Z" fill="#E14E32"/>
<path d="M9.71793 678.785V651.339L1.13672 648.52V631.94L66.8493 654.196V674.92L1.13672 697.099V681.68L9.71793 678.785ZM28.0038 672.599L47.0475 666.133V663.991L28.0038 657.524V672.599Z" fill="#E14E32"/>
</g>
<defs>
<clipPath id="clip0">
<rect width="68" height="696.468" fill="white" transform="translate(0 0.630859)"/>
</clipPath>
</defs>
</svg>
